<svg id="レイヤー_1" data-name="レイヤー 1" xmlns="http://www.w3.org/2000/svg" xmlns:xlink="http://www.w3.org/1999/xlink" viewBox="0 0 518.42 409.3"><defs><style>.cls-1{fill:none;}.cls-2{clip-path:url(#clip-path);}.cls-3{fill:#231815;}.cls-4{opacity:0.33;}</style><clipPath id="clip-path" transform="translate(-150.13 -104.04)"><rect class="cls-1" width="841.89" height="595.28"/></clipPath></defs><title>logo-black</title><g class="cls-2"><path class="cls-3" d="M283.18,128.79c-10.45-6.9-25.86-5.81-37.92-2.18s-22.91,10.46-32.91,18.1c-8.52,6.52-16.8,14-21,23.92s-6.43,20,3.35,29.72c6.58,6.59,21,4.55,26.22,3.86,8.8-1.16,24.25-5.85,32.73-8.49,21.72-6.77,45.14,1.47,45.14,1.47s-13.92,9.49-23.11,18.67c-4,4-30.65,29-13.08,58.31,6.08,10.13,23.52,15.25,36.23,14.94s32-4.91,40.08-8.51c10.85-4.83,44.54-21.15,39-35.68-.23-.6-.9-1.26-1-.63-2.76,24.18-59.74,37.62-71.13,21.82-4.7-6.52,1.82-25.25,7-34.26,11.79-20.36,23.07-26.73,24.92-27.57,6.17-2.8,25.91-8.4,32.82-25.49,10.52-26-1.27-38.54-19.49-43.43a47.53,47.53,0,0,0-34.59,4.24c-13.77,7.46-44.59,23.71-68,20.36-16.59-2.36-11.38-16.28-5.88-21.18,10.58-9.43,29.88-14,40.55-8" transform="translate(-150.13 -104.04)"/><path class="cls-3" d="M346.21,118.37a33.36,33.36,0,0,1,13.43,1.12c4.4,1.46,8.77,4.91,9,9.87.13,2.64,1,6.66,2.27,7.46-3.34-1.8-6.29-2.06-10.79-1.72,8.87,1.7,9.08,3.48,12.34,6.09a22.71,22.71,0,0,0,7.5,2.69c7.68,0,10.87-8.3,7.94-15.39-4-9.71-15-12.22-22.58-12.38a67,67,0,0,0-19.12,2.26" transform="translate(-150.13 -104.04)"/><path class="cls-3" d="M368.72,110.92a33.49,33.49,0,0,1,13.17,2.84c4.17,2,8.07,6,7.67,10.95-.21,2.64.1,6.73,1.29,7.69-3.09-2.22-6-2.86-10.49-3.1,8.59,2.83,8.56,4.62,11.46,7.63a22.8,22.8,0,0,0,7.09,3.63c7.62,1,11.85-6.83,9.86-14.24-2.73-10.14-13.33-14-20.8-15.18a67.23,67.23,0,0,0-19.25-.22" transform="translate(-150.13 -104.04)"/><path class="cls-3" d="M429.93,113.64c29.17-15.56,66.37-9.92,84.07.74,13.81,8.31,31.32,23.65,29.14,36.32-1.41,8.22-8.74,18.75-17.56,23.85s-37.07,15.14-46.77,1.83c-4.34-5.94-5.05-14.57-9.45-21-4.77-7-18.55-11.46-23.56-11.46s-8.52,2-9.33,4.62c-2.08,6.83,6,10.08,9.36,11.94,3.58,2,13.61,5.36,14.2,13.47.34,4.61-.85,9.51-3.52,12.47s-10.24,10-8.5,11.91,18.21-13.12,37.83-14c11.75-.52,56.33-3.79,64.68,23.86,4.58,15.21-12.82,43.07-27.42,55.2-14,11.58-32.52,15.49-50.43,18.29-21.92,3.42-81.33,3.7-88.79-6.56,9.19,7.41,21.55,6,33.13,3.68a82.7,82.7,0,0,0,32.21-14.25c20.21-14.78,40.74-35.87,50-55.73,5.35-11.46,5.95-26.06-11.77-20.44-21.23,6.74-24.19,34.85-30.61,47.38a75.45,75.45,0,0,1-28.44,30.18c-15.24,9-42.11,4.78-43.38-22.59-.69-14.76,21-53.94,24.23-63.67,2.27-6.94-2.07-13-2.5-19.3-.38-5.51.78-22.77,22.27-24.26,13.67-1,31.27,9.18,43.2,15.91,2.74,1.55,8.25,2.83,11.38,2.46,5.33-.62,8.51-6.45,9.15-11.78,1.05-8.79-4.23-17.42-11.31-22.72-21.72-16.27-40.86-12.07-51.83-6.27a.43.43,0,0,0,.31,0" transform="translate(-150.13 -104.04)"/><path class="cls-3" d="M553.56,250.36h0a1.25,1.25,0,0,1-.78-1.9c12.72-20.2,22.1-43.7,28.8-61.75,1.32-3.57,14.79-39.86,22.71-52.61,1.84-3,9.89-19.64,23.23-13.5,4.36,2,12.4,12.06-8.92,40.32-.92,1.22-26.42,31.73-27.28,33-4.16,6.17-20.79,28.26-36.81,56.25-.3.52-.34.33-.92.2" transform="translate(-150.13 -104.04)"/><path class="cls-3" d="M575.45,250.29h0a1.26,1.26,0,0,1-.55-2c15.06-18.52,27.22-40.72,36-57.83,1.74-3.38,19.49-37.79,28.89-49.48,2.19-2.73,12.19-18.31,24.69-10.61,4.09,2.52,10.85,13.48-13.71,39-1.07,1.1-30.07,28.31-31.07,29.46-4.87,5.62-24.05,25.55-43.33,51.41-.35.47-.37.28-.93.08" transform="translate(-150.13 -104.04)"/><path class="cls-3" d="M546.39,268.41c.23,0,.49,0,.67.16s.22.57.27.77a2.34,2.34,0,0,1-.94,2.32s-2.83,3.47-3.59,4.11a6.51,6.51,0,0,1-4.66,1.61c-.31-.26-.12-.73-.06-1.13.47-3.09,5.13-8.49,8.31-7.84" transform="translate(-150.13 -104.04)"/><path class="cls-3" d="M566.89,263.87c.23.05.49,0,.67.16s.22.58.27.77a2.34,2.34,0,0,1-.94,2.32s-2.83,3.47-3.59,4.11a6.51,6.51,0,0,1-4.66,1.61c-.31-.26-.12-.73-.06-1.13.47-3.09,5.13-8.49,8.31-7.84" transform="translate(-150.13 -104.04)"/><path class="cls-3" d="M447.23,483.6a208.78,208.78,0,0,1-149.79-35.55c3-9.07,7.77-17.6,12.51-26.14l-11.13-2.33c7.83-1.3,14.64-8.3,17.4-16s2.5-16.07,3-24.21.67-17.27,6.27-23.22c-1.54-3.2-4-5.07-5.44-6.45-10.59-2.59-18.72,1.28-26.8,7.55,5.59-10.06,12.16-18.73,18.74-27.4,11.23-7,23.53-13,35.82-19.05a124.52,124.52,0,0,1,16.6,3.41,267.29,267.29,0,0,0-19.6-18.52c-35.83,6.82-66.29,27.94-96.42,47.62S186,382.18,150.13,385.09c17.9,10.06,35.31,14.27,49.28,8.55a442,442,0,0,0,60-30.08,12.39,12.39,0,0,0-1.11-.79c.68.09,1.38.15,2.1.19q14.11-8.52,27.57-18.09c-1.16,7-13.12,12.65-16.61,14.12a.51.51,0,0,0,0,.93c2.09,1,6.07.62,9.08,1.34,0,0-11.4,2.24-20,1.7l-1,.6c4.51,3.54,6.65,10,6.65,15.75a18.81,18.81,0,0,1-8.67,15.62c3.38,4.08,8.27,10.65,11.65,14.73-12.37,20.69-58.62,53.63-96.53,44.76,18.75,13.73,54.67,7.59,77.65-11.89,7.3,2.67,12.77,7.08,18.74,9.19-12,18.6-37.18,32.09-62.62,25.2,26.88,9.1,65.46,3.39,78.14-16.9,40.53,34.94,105.17,51.82,161.37,42.1S552.86,455.76,580,405.57a208.73,208.73,0,0,1-132.72,78m-168-41.07-21-5.44,10.14-8.16c4.94-.27,10.46-1.12,16-2q-2.56,7.8-5.14,15.58m10.59-43.85a2.32,2.32,0,0,1-1.33-.21c-.84-.51-.7-1.76-.39-2.7a21.92,21.92,0,0,1,10.66-12.4,6,6,0,0,0,1.88-1.23,1.74,1.74,0,0,0,.26-2.07,2.47,2.47,0,0,0-2.19-.64,65.57,65.57,0,0,0-17.34,3.17,7.44,7.44,0,0,0-.91-7A73.51,73.51,0,0,1,305,362.77a89.39,89.39,0,0,1-8.71,35.65Z" transform="translate(-150.13 -104.04)"/><path class="cls-3" d="M393.62,304c7.56-6.65,18.47-9.42,28.47-8.28a30.94,30.94,0,0,1,24.55,16.73c8.68-6.8,23.06-4.25,27.45,5.88a13.32,13.32,0,0,1-6.29,6.57C439.39,367,387.44,392,335.69,388a95.49,95.49,0,0,0,51-15.67l-19.82-3.44c-.3-2.11-.28-2-.58-4.14a46.1,46.1,0,0,1,36.63-.75,36.8,36.8,0,0,0,15.39-16.41c-9,5.56-24.46.82-31.08-2.19-1.86-.85-1.21-3.77.72-4.45a82.63,82.63,0,0,0,34.93-23.85c3.64-4.23,3.56-11.14-.39-15.07-3.76-3.75-7.54-3.4-12.82-2.74S395,302.15,393.62,304" transform="translate(-150.13 -104.04)"/><path class="cls-3" d="M456.15,341.31c16.12-2.47,32.24-4.94,47.87-5.79,3,3.53,6.09,7.07,8.33,12.19-9,7.41-17.91,14.83-27.26,21.32a55.76,55.76,0,0,0,43.31,13.89c15.53-1.81,30.11-10.59,38-23.3a52.39,52.39,0,0,1-40.49,35.32c-18.59,3.11-38.62-5-49.87-19.56-15.23,12.87-39.51,13.43-55.32,1.28a36,36,0,0,0,37.85-9.57c-10.16-2.81-17.14-1.24-18.89-9.75,15.47,1.71,28.64,6.73,38.26-5.26-2.4-.27-1.81,0-4.22-.3-6.19-3.78-12.39-7.57-17.54-10.47" transform="translate(-150.13 -104.04)"/><path class="cls-3" d="M394.21,393.27c16.32-1.26,32.63-2.52,49.11-3.7,2.49,1.93,5,3.86,7.88,6a1.57,1.57,0,0,1,0,2.53c-3.33,2.47-6.65,4.9-10,7.09a14.9,14.9,0,0,1-6.41,2.35c-4.62.56-9.37,1.05-14.69,1.18a12.86,12.86,0,0,1-7.16-2c-6.58-4.1-13.08-8.19-19.1-12.16a.69.69,0,0,1,.33-1.27" transform="translate(-150.13 -104.04)"/><path class="cls-3" d="M372.26,417.28c5.83,3.37,13.14,1.2,19.6-.71,26.31-7.79,54.28-9.92,81.2-4.72a4.26,4.26,0,0,1,2.1,4.43,3.61,3.61,0,0,1-4.1,2.89,86.28,86.28,0,0,0-37.9,5.36,25.41,25.41,0,0,1,7.26,46.23c-5.08,3.17-11.13,4.44-17.09,4.91-5.17.41-10.62.19-15.12-2.36s-7.35-6.94-10.5-10.94-7.1-7.91-12.14-8.61l15.09,3.57c5.83,1.38,12.44,2.64,17.43-.69,4.16-2.77,5.9-7.94,7.36-12.72,1.32-4.3,2.56-9.22.2-13-2.23-3.63-7-4.86-11.26-4.5s-8.29,2-12.49,2.66c-10.92,1.83-22.68-3-29.64-11.76" transform="translate(-150.13 -104.04)"/><path class="cls-3" d="M369.39,437.7c2-1.12,4.67.33,5.36,2.48a6.48,6.48,0,0,1-1.8,6.19,19.19,19.19,0,0,1-5.64,3.67c-2.64,1.31-5.39,2.64-8.33,2.69-3.75.06-7.92-1.88-11,.25-2.65,1.84-2.77,6-.86,8.65s5.22,3.83,8.43,4.21c8.63,1,17.07-3,24.16-8,4.56-3.22,8.8-6.88,13-10.53,1.34-1.15,2.78-2.53,2.81-4.29,0-2.73-3.18-4.18-5.85-4.78a47.49,47.49,0,0,0-20.3-.51" transform="translate(-150.13 -104.04)"/><path class="cls-3" d="M456.11,434.8c7.85-4.71,17.67-7.41,26.19-4.06,4.34,1.71,7.95,4.82,11.47,7.87,3.27,2.84,6.78,6.13,7.11,10.44a9.28,9.28,0,0,1-6.74,9.24,11,11,0,0,1-11.09-3.79c-1.62-2-2.54-4.44-3.79-6.68a26.51,26.51,0,0,0-23.15-13" transform="translate(-150.13 -104.04)"/><path class="cls-3" d="M577.19,320.75c1,7.23,0,14.59-1.66,21.7-.78,3.43-1.71,6.95-1.23,10.44s2.82,7,6.29,7.64c5.76,1,9.55-5.6,12.06-10.89a83.84,83.84,0,0,1,25.39-31c4.35-3.25,11.12-5.84,14.65-1.71,1.75,2.05,1.86,5,1.83,7.69-.63,61.4-29.12,122-76,161.62-17.17,14.52-37.86,26.69-60.34,27,25.23,1,50.3-7.83,71.08-22.19s37.53-34,51.1-55.26c23-36.08,37.54-80.07,28.17-121.81-1.14-5.07-2.74-10.27-6.35-14s-9.77-5.45-14.12-2.62l-25.62,26.48c-3,3.12-6.91,6.52-11.13,5.49-5.32-1.3-6.47-8.11-8.22-13.3a27.15,27.15,0,0,0-16.18-16.59c-.95,1.67,9.32,14.07,10.29,21.29" transform="translate(-150.13 -104.04)"/></g></svg>