<svg xmlns="http://www.w3.org/2000/svg" viewBox="0 0 518.42 409.3"><defs><style>.cls-1{fill:#fff;}</style></defs><title>アセット 2</title><g id="レイヤー_2" data-name="レイヤー 2"><g id="レイヤー_1-2" data-name="レイヤー 1"><path class="cls-1" d="M133.06,24.75c-10.45-6.9-25.87-5.81-37.93-2.18S72.22,33,62.22,40.68c-8.52,6.51-16.79,14-21,23.91s-6.42,20,3.35,29.72c6.59,6.59,21,4.55,26.22,3.86,8.81-1.15,24.25-5.85,32.73-8.49,21.72-6.77,45.14,1.48,45.14,1.48s-13.92,9.48-23.1,18.67c-4,4-30.65,29-13.09,58.3,6.08,10.13,23.52,15.25,36.24,14.94s32-4.91,40.07-8.51c10.85-4.83,44.55-21.15,39-35.68-.23-.59-.91-1.26-1-.63-2.76,24.18-59.74,37.62-71.12,21.82-4.7-6.52,1.82-25.24,7-34.26,11.79-20.36,23.08-26.73,24.93-27.57,6.16-2.79,25.91-8.39,32.81-25.49C231,46.7,219.21,34.21,201,29.32a47.53,47.53,0,0,0-34.59,4.24c-13.77,7.46-44.58,23.71-68,20.37C81.8,51.56,87,37.65,92.5,32.75c10.59-9.44,29.88-14,40.56-8"/><path class="cls-1" d="M196.09,14.33a33.38,33.38,0,0,1,13.43,1.12c4.39,1.46,8.77,4.91,9,9.87.13,2.64,1,6.66,2.27,7.46-3.35-1.8-6.29-2.06-10.8-1.72,8.88,1.7,9.08,3.48,12.35,6.09a22.63,22.63,0,0,0,7.5,2.69c7.68,0,10.86-8.3,7.93-15.39-4-9.7-15-12.22-22.57-12.38a66.91,66.91,0,0,0-19.12,2.26"/><path class="cls-1" d="M218.59,6.89a33.28,33.28,0,0,1,13.17,2.83c4.17,2,8.07,6,7.67,11-.21,2.64.11,6.73,1.29,7.69-3.08-2.21-6-2.85-10.48-3.1,8.58,2.83,8.55,4.63,11.46,7.63a22.59,22.59,0,0,0,7.09,3.63c7.61,1,11.84-6.83,9.85-14.24-2.73-10.14-13.32-14-20.8-15.18a67.22,67.22,0,0,0-19.25-.21"/><path class="cls-1" d="M279.8,9.61c29.17-15.56,66.37-9.93,84.07.73C377.68,18.65,395.19,34,393,46.66c-1.41,8.22-8.75,18.75-17.56,23.85s-37.07,15.14-46.78,1.84c-4.33-5.95-5.05-14.58-9.45-21-4.76-7-18.55-11.46-23.56-11.46s-8.52,2-9.33,4.62c-2.08,6.83,6,10.08,9.36,11.94,3.58,2,13.61,5.36,14.2,13.48.34,4.6-.84,9.51-3.51,12.46s-10.24,10-8.5,11.91,18.2-13.11,37.82-14c11.75-.52,56.34-3.8,64.68,23.85,4.58,15.21-12.82,43.07-27.42,55.2-14,11.58-32.52,15.49-50.43,18.29-21.91,3.42-81.33,3.7-88.78-6.56,9.18,7.41,21.54,6,33.12,3.68a82.83,82.83,0,0,0,32.21-14.24c20.21-14.79,40.74-35.88,50-55.74,5.34-11.46,5.94-26.06-11.78-20.43-21.22,6.73-24.19,34.84-30.61,47.37a75.38,75.38,0,0,1-28.44,30.18c-15.23,9-42.11,4.78-43.38-22.59-.69-14.76,21-53.94,24.23-63.67,2.28-6.94-2.07-13-2.5-19.3-.38-5.51.78-22.77,22.27-24.26,13.67-.95,31.27,9.18,43.2,15.91a23.55,23.55,0,0,0,11.38,2.47c5.34-.63,8.51-6.46,9.15-11.79,1.05-8.79-4.22-17.42-11.31-22.72C309.6-.35,290.46,3.85,279.49,9.65a.47.47,0,0,0,.31,0"/><path class="cls-1" d="M403.44,146.32h0a1.26,1.26,0,0,1-.79-1.9c12.72-20.19,22.11-43.7,28.8-61.75,1.32-3.56,14.8-39.86,22.71-52.6,1.85-3,9.89-19.65,23.24-13.51,4.36,2,12.4,12.07-8.92,40.32-.92,1.22-26.43,31.73-27.28,33-4.16,6.17-20.8,28.26-36.82,56.26-.29.51-.34.32-.91.19"/><path class="cls-1" d="M425.32,146.25h0a1.26,1.26,0,0,1-.55-2c15.07-18.52,27.22-40.72,36-57.83,1.74-3.38,19.5-37.78,28.89-49.48,2.19-2.72,12.19-18.31,24.69-10.6,4.09,2.52,10.86,13.47-13.71,38.95-1.06,1.1-30.06,28.31-31.06,29.47-4.88,5.62-24.06,25.54-43.34,51.4-.35.47-.37.28-.93.08"/><path class="cls-1" d="M396.26,164.37c.23,0,.49,0,.68.16a1.81,1.81,0,0,1,.26.77,2.33,2.33,0,0,1-.93,2.32s-2.84,3.47-3.6,4.11c-1.94,1.63-4.41,1.8-4.65,1.61s-.13-.73-.06-1.13c.47-3.09,5.12-8.48,8.3-7.84"/><path class="cls-1" d="M416.76,159.84c.23,0,.49,0,.68.15a1.81,1.81,0,0,1,.26.77,2.33,2.33,0,0,1-.93,2.32s-2.84,3.47-3.6,4.11c-1.94,1.63-4.41,1.8-4.65,1.61s-.13-.73-.06-1.13c.47-3.09,5.12-8.48,8.3-7.83"/><path class="cls-1" d="M297.11,379.56A208.76,208.76,0,0,1,147.31,344c3-9.06,7.78-17.6,12.52-26.14l-11.14-2.32c7.83-1.3,14.65-8.31,17.41-16s2.5-16.07,3-24.22.67-17.27,6.28-23.21c-1.55-3.2-4-5.08-5.44-6.46-10.6-2.59-18.73,1.28-26.81,7.55,5.59-10.06,12.17-18.73,18.74-27.4,11.24-7,23.53-13,35.82-19a125.78,125.78,0,0,1,16.6,3.41,267.12,267.12,0,0,0-19.59-18.52c-35.84,6.82-66.29,27.94-96.43,47.62S35.88,278.14,0,281.05c17.9,10.06,35.32,14.27,49.28,8.55a441.39,441.39,0,0,0,60-30.08,12.24,12.24,0,0,0-1.1-.79c.67.09,1.37.15,2.1.19q14.12-8.52,27.57-18.09c-1.16,7-13.13,12.65-16.61,14.12a.51.51,0,0,0,0,.93c2.08,1,6.06.62,9.07,1.34,0,0-11.4,2.24-20,1.7l-1,.6c4.51,3.54,6.65,10,6.65,15.75a18.79,18.79,0,0,1-8.67,15.62c3.39,4.08,8.27,10.65,11.65,14.73-12.37,20.69-58.62,53.64-96.52,44.76C41.09,364.12,77,358,100,338.49c7.29,2.67,12.76,7.08,18.73,9.19-12,18.6-37.18,32.09-62.62,25.2C83,382,121.58,376.27,134.26,356c40.52,34.94,105.17,51.83,161.36,42.1s107.12-46.36,134.2-96.54a208.77,208.77,0,0,1-132.71,78m-168-41.07-21-5.44,10.13-8.16c4.94-.27,10.47-1.12,16-2q-2.58,7.79-5.15,15.57m10.6-43.85a2.42,2.42,0,0,1-1.34-.2c-.84-.52-.69-1.77-.38-2.71a21.88,21.88,0,0,1,10.66-12.4,5.9,5.9,0,0,0,1.87-1.23,1.72,1.72,0,0,0,.26-2.07,2.45,2.45,0,0,0-2.18-.64,65.72,65.72,0,0,0-17.35,3.17,7.44,7.44,0,0,0-.91-7,73.56,73.56,0,0,1,24.57-12.81,89.4,89.4,0,0,1-8.72,35.65Z"/><path class="cls-1" d="M243.5,199.91c7.55-6.64,18.47-9.42,28.46-8.28a31,31,0,0,1,24.56,16.74c8.67-6.81,23.05-4.26,27.44,5.87a13.32,13.32,0,0,1-6.29,6.57c-28.41,42.11-80.35,67.14-132.11,63.1a95.48,95.48,0,0,0,51-15.66l-19.82-3.45c-.29-2.11-.28-2-.57-4.14a46.16,46.16,0,0,1,36.62-.75A36.69,36.69,0,0,0,268.2,243.5c-9,5.56-24.46.83-31.08-2.19-1.86-.85-1.2-3.77.72-4.45A82.57,82.57,0,0,0,272.77,213c3.64-4.23,3.56-11.13-.39-15.07-3.76-3.75-7.54-3.4-12.82-2.74s-14.73,2.91-16.06,4.71"/><path class="cls-1" d="M306,237.27c16.12-2.47,32.25-4.94,47.88-5.79,3,3.53,6.08,7.07,8.33,12.19-9,7.42-17.92,14.83-27.27,21.32a55.78,55.78,0,0,0,43.32,13.89c15.52-1.8,30.1-10.58,38-23.3a52.42,52.42,0,0,1-40.49,35.32c-18.59,3.11-38.62-5-49.88-19.56-15.23,12.87-39.51,13.43-55.32,1.28a36,36,0,0,0,37.86-9.56c-10.17-2.82-17.14-1.25-18.89-9.76C305,255,318.16,260,327.78,248c-2.4-.26-1.81,0-4.21-.3-6.2-3.78-12.39-7.57-17.55-10.47"/><path class="cls-1" d="M244.09,289.23c16.31-1.26,32.63-2.51,49.11-3.7,2.48,1.93,5,3.87,7.87,6a1.57,1.57,0,0,1,0,2.53c-3.32,2.47-6.65,4.9-10,7.1a14.89,14.89,0,0,1-6.4,2.34c-4.63.56-9.37,1-14.7,1.19a13,13,0,0,1-7.16-2c-6.57-4.11-13.08-8.2-19.1-12.17a.7.7,0,0,1,.34-1.27"/><path class="cls-1" d="M222.13,313.24c5.83,3.37,13.15,1.2,19.61-.71,26.31-7.78,54.27-9.92,81.19-4.72a4.24,4.24,0,0,1,2.1,4.43,3.61,3.61,0,0,1-4.1,2.89A86.36,86.36,0,0,0,283,320.49a25.42,25.42,0,0,1,7.25,46.24c-5.08,3.16-11.12,4.43-17.09,4.9-5.16.41-10.61.2-15.11-2.36s-7.35-6.94-10.51-10.93-7.09-7.92-12.13-8.62l15.09,3.57c5.83,1.38,12.44,2.64,17.42-.68,4.17-2.78,5.9-7.95,7.37-12.73,1.31-4.29,2.55-9.22.2-13-2.24-3.62-7-4.86-11.27-4.5s-8.28,2-12.49,2.66c-10.91,1.84-22.68-3-29.64-11.76"/><path class="cls-1" d="M219.26,333.66c2-1.12,4.67.33,5.36,2.48a6.47,6.47,0,0,1-1.8,6.19,19,19,0,0,1-5.63,3.67c-2.64,1.31-5.39,2.64-8.33,2.69-3.76.07-7.93-1.88-11,.26-2.66,1.84-2.77,6-.86,8.65s5.22,3.82,8.43,4.2c8.62,1,17.06-3,24.15-8,4.57-3.22,8.81-6.88,13-10.53,1.33-1.15,2.78-2.52,2.8-4.29,0-2.73-3.17-4.18-5.84-4.77a47.38,47.38,0,0,0-20.31-.52"/><path class="cls-1" d="M306,330.76c7.85-4.71,17.67-7.41,26.19-4.06,4.34,1.71,7.95,4.82,11.48,7.87,3.26,2.84,6.77,6.13,7.11,10.44a9.29,9.29,0,0,1-6.75,9.24,11,11,0,0,1-11.09-3.78c-1.61-2-2.53-4.45-3.79-6.69a26.52,26.52,0,0,0-23.15-13"/><path class="cls-1" d="M427.07,216.72c1,7.22,0,14.58-1.66,21.69-.79,3.44-1.72,7-1.24,10.44s2.82,7,6.29,7.64c5.77,1,9.55-5.6,12.07-10.89a83.86,83.86,0,0,1,25.38-31c4.36-3.26,11.12-5.85,14.65-1.72,1.75,2.05,1.86,5,1.83,7.69-.63,61.4-29.12,122-76,161.62-17.18,14.52-37.86,26.69-60.35,27,25.24,1,50.3-7.83,71.08-22.18s37.53-34,51.11-55.27c23-36.08,37.54-80.06,28.16-121.81-1.14-5.06-2.74-10.27-6.35-14s-9.76-5.46-14.12-2.63L452.3,219.82c-3,3.12-6.91,6.52-11.12,5.49-5.33-1.3-6.47-8.11-8.22-13.3a27.17,27.17,0,0,0-16.19-16.59c-.95,1.67,9.32,14.07,10.3,21.3"/></g></g></svg>